<svg id="visual" viewBox="0 0 900 600" width="900" height="600" xmlns="http://www.w3.org/2000/svg" xmlns:xlink="http://www.w3.org/1999/xlink" version="1.1"><rect x="0" y="0" width="900" height="600" fill="#25033e"></rect><defs><linearGradient id="grad1_0" x1="33.3%" y1="0%" x2="100%" y2="100%"><stop offset="20%" stop-color="#a12d2d" stop-opacity="1"></stop><stop offset="80%" stop-color="#a12d2d" stop-opacity="1"></stop></linearGradient></defs><defs><linearGradient id="grad1_1" x1="33.3%" y1="0%" x2="100%" y2="100%"><stop offset="20%" stop-color="#a12d2d" stop-opacity="1"></stop><stop offset="80%" stop-color="#901536" stop-opacity="1"></stop></linearGradient></defs><defs><linearGradient id="grad1_2" x1="33.3%" y1="0%" x2="100%" y2="100%"><stop offset="20%" stop-color="#7b003d" stop-opacity="1"></stop><stop offset="80%" stop-color="#901536" stop-opacity="1"></stop></linearGradient></defs><defs><linearGradient id="grad1_3" x1="33.3%" y1="0%" x2="100%" y2="100%"><stop offset="20%" stop-color="#7b003d" stop-opacity="1"></stop><stop offset="80%" stop-color="#610041" stop-opacity="1"></stop></linearGradient></defs><defs><linearGradient id="grad1_4" x1="33.3%" y1="0%" x2="100%" y2="100%"><stop offset="20%" stop-color="#450042" stop-opacity="1"></stop><stop offset="80%" stop-color="#610041" stop-opacity="1"></stop></linearGradient></defs><defs><linearGradient id="grad1_5" x1="33.3%" y1="0%" x2="100%" y2="100%"><stop offset="20%" stop-color="#450042" stop-opacity="1"></stop><stop offset="80%" stop-color="#25033e" stop-opacity="1"></stop></linearGradient></defs><defs><linearGradient id="grad2_0" x1="0%" y1="0%" x2="66.7%" y2="100%"><stop offset="20%" stop-color="#a12d2d" stop-opacity="1"></stop><stop offset="80%" stop-color="#a12d2d" stop-opacity="1"></stop></linearGradient></defs><defs><linearGradient id="grad2_1" x1="0%" y1="0%" x2="66.7%" y2="100%"><stop offset="20%" stop-color="#901536" stop-opacity="1"></stop><stop offset="80%" stop-color="#a12d2d" stop-opacity="1"></stop></linearGradient></defs><defs><linearGradient id="grad2_2" x1="0%" y1="0%" x2="66.7%" y2="100%"><stop offset="20%" stop-color="#901536" stop-opacity="1"></stop><stop offset="80%" stop-color="#7b003d" stop-opacity="1"></stop></linearGradient></defs><defs><linearGradient id="grad2_3" x1="0%" y1="0%" x2="66.7%" y2="100%"><stop offset="20%" stop-color="#610041" stop-opacity="1"></stop><stop offset="80%" stop-color="#7b003d" stop-opacity="1"></stop></linearGradient></defs><defs><linearGradient id="grad2_4" x1="0%" y1="0%" x2="66.7%" y2="100%"><stop offset="20%" stop-color="#610041" stop-opacity="1"></stop><stop offset="80%" stop-color="#450042" stop-opacity="1"></stop></linearGradient></defs><defs><linearGradient id="grad2_5" x1="0%" y1="0%" x2="66.7%" y2="100%"><stop offset="20%" stop-color="#25033e" stop-opacity="1"></stop><stop offset="80%" stop-color="#450042" stop-opacity="1"></stop></linearGradient></defs><g transform="translate(900, 0)"><path d="M0 459.7C-25.7 456.8 -51.4 454 -79.8 452.7C-108.2 451.5 -139.3 451.8 -155.3 426.6C-171.2 401.4 -172.1 350.6 -193 334.3C-213.9 318 -255 336.1 -271.9 324C-288.8 312 -281.6 269.6 -295.7 248.1C-309.8 226.6 -345.3 225.9 -366.3 211.5C-387.4 197.1 -394.1 169.1 -392.8 143C-391.5 116.8 -382.1 92.6 -392 69.1C-401.8 45.6 -430.7 22.8 -459.7 0L0 0Z" fill="#350140"></path><path d="M0 383.1C-21.4 380.7 -42.9 378.3 -66.5 377.3C-90.2 376.2 -116.1 376.5 -129.4 355.5C-142.7 334.5 -143.4 292.2 -160.8 278.6C-178.3 265 -212.5 280.1 -226.6 270C-240.7 260 -234.7 224.7 -246.4 206.8C-258.2 188.8 -287.7 188.2 -305.3 176.3C-322.8 164.3 -328.4 140.9 -327.3 119.1C-326.2 97.4 -318.4 77.2 -326.6 57.6C-334.8 38 -358.9 19 -383.1 0L0 0Z" fill="#530042"></path><path d="M0 306.5C-17.1 304.6 -34.3 302.6 -53.2 301.8C-72.2 301 -92.9 301.2 -103.5 284.4C-114.2 267.6 -114.7 233.7 -128.7 222.9C-142.6 212 -170 224.1 -181.3 216C-192.5 208 -187.7 179.8 -197.1 165.4C-206.5 151.1 -230.2 150.6 -244.2 141C-258.3 131.4 -262.7 112.7 -261.9 95.3C-261 77.9 -254.8 61.7 -261.3 46.1C-267.8 30.4 -287.2 15.2 -306.5 0L0 0Z" fill="#6e0040"></path><path d="M0 229.9C-12.9 228.4 -25.7 227 -39.9 226.4C-54.1 225.7 -69.7 225.9 -77.6 213.3C-85.6 200.7 -86 175.3 -96.5 167.1C-107 159 -127.5 168.1 -135.9 162C-144.4 156 -140.8 134.8 -147.8 124.1C-154.9 113.3 -172.6 112.9 -183.2 105.8C-193.7 98.6 -197.1 84.5 -196.4 71.5C-195.7 58.4 -191.1 46.3 -196 34.6C-200.9 22.8 -215.4 11.4 -229.9 0L0 0Z" fill="#86083a"></path><path d="M0 153.2C-8.6 152.3 -17.1 151.3 -26.6 150.9C-36.1 150.5 -46.4 150.6 -51.8 142.2C-57.1 133.8 -57.4 116.9 -64.3 111.4C-71.3 106 -85 112 -90.6 108C-96.3 104 -93.9 89.9 -98.6 82.7C-103.3 75.5 -115.1 75.3 -122.1 70.5C-129.1 65.7 -131.4 56.4 -130.9 47.7C-130.5 38.9 -127.4 30.9 -130.7 23C-133.9 15.2 -143.6 7.6 -153.2 0L0 0Z" fill="#992132"></path><path d="M0 76.6C-4.3 76.1 -8.6 75.7 -13.3 75.5C-18 75.2 -23.2 75.3 -25.9 71.1C-28.5 66.9 -28.7 58.4 -32.2 55.7C-35.7 53 -42.5 56 -45.3 54C-48.1 52 -46.9 44.9 -49.3 41.4C-51.6 37.8 -57.5 37.6 -61.1 35.3C-64.6 32.9 -65.7 28.2 -65.5 23.8C-65.2 19.5 -63.7 15.4 -65.3 11.5C-67 7.6 -71.8 3.8 -76.6 0L0 0Z" fill="#a12d2d"></path></g><g transform="translate(0, 600)"><path d="M0 -459.7C25.9 -456.2 51.9 -452.7 79.5 -451C107.2 -449.4 136.6 -449.5 157.2 -432C177.8 -414.5 189.7 -379.3 205 -355.1C220.3 -330.9 239.2 -317.6 250.7 -298.8C262.2 -279.9 266.4 -255.4 291.1 -244.3C315.8 -233.1 361.1 -235.2 378.5 -218.5C395.8 -201.8 385.4 -166.1 379.6 -138.2C373.9 -110.2 372.9 -90 387 -68.2C401.2 -46.5 430.4 -23.2 459.7 0L0 0Z" fill="#350140"></path><path d="M0 -383.1C21.6 -380.2 43.2 -377.3 66.3 -375.9C89.3 -374.5 113.8 -374.6 131 -360C148.2 -345.4 158.1 -316.1 170.8 -295.9C183.6 -275.7 199.3 -264.7 208.9 -249C218.5 -233.2 222 -212.9 242.6 -203.5C263.2 -194.2 300.9 -196 315.4 -182.1C329.9 -168.1 321.1 -138.4 316.4 -115.1C311.6 -91.9 310.7 -75 322.5 -56.9C334.3 -38.7 358.7 -19.4 383.1 0L0 0Z" fill="#530042"></path><path d="M0 -306.5C17.3 -304.1 34.6 -301.8 53 -300.7C71.5 -299.6 91.1 -299.7 104.8 -288C118.6 -276.3 126.4 -252.9 136.7 -236.7C146.9 -220.6 159.5 -211.7 167.1 -199.2C174.8 -186.6 177.6 -170.3 194.1 -162.8C210.5 -155.4 240.7 -156.8 252.3 -145.7C263.9 -134.5 256.9 -110.7 253.1 -92.1C249.3 -73.5 248.6 -60 258 -45.5C267.4 -31 287 -15.5 306.5 0L0 0Z" fill="#6e0040"></path><path d="M0 -229.9C13 -228.1 25.9 -226.4 39.8 -225.5C53.6 -224.7 68.3 -224.8 78.6 -216C88.9 -207.2 94.8 -189.6 102.5 -177.5C110.2 -165.4 119.6 -158.8 125.3 -149.4C131.1 -139.9 133.2 -127.7 145.5 -122.1C157.9 -116.5 180.5 -117.6 189.2 -109.3C197.9 -100.9 192.7 -83.1 189.8 -69.1C186.9 -55.1 186.4 -45 193.5 -34.1C200.6 -23.2 215.2 -11.6 229.9 0L0 0Z" fill="#86083a"></path><path d="M0 -153.2C8.6 -152.1 17.3 -150.9 26.5 -150.3C35.7 -149.8 45.5 -149.8 52.4 -144C59.3 -138.2 63.2 -126.4 68.3 -118.4C73.4 -110.3 79.7 -105.9 83.6 -99.6C87.4 -93.3 88.8 -85.1 97 -81.4C105.3 -77.7 120.4 -78.4 126.2 -72.8C131.9 -67.3 128.5 -55.4 126.5 -46.1C124.6 -36.7 124.3 -30 129 -22.7C133.7 -15.5 143.5 -7.7 153.2 0L0 0Z" fill="#992132"></path><path d="M0 -76.6C4.3 -76 8.6 -75.5 13.3 -75.2C17.9 -74.9 22.8 -74.9 26.2 -72C29.6 -69.1 31.6 -63.2 34.2 -59.2C36.7 -55.1 39.9 -52.9 41.8 -49.8C43.7 -46.6 44.4 -42.6 48.5 -40.7C52.6 -38.8 60.2 -39.2 63.1 -36.4C66 -33.6 64.2 -27.7 63.3 -23C62.3 -18.4 62.1 -15 64.5 -11.4C66.9 -7.7 71.7 -3.9 76.6 0L0 0Z" fill="#a12d2d"></path></g></svg>